<svg version="1.1" x="0px" y="0px" viewBox="0 0 141.9 60.3">
      <path
        d="M128.6,11.7l3.3,12.1h-6.6L128.6,11.7z M132.9,6h-8.7l-8.8,28.9h6.8l1.6-5.6h9.7l1.6,5.6h6.8L132.9,6z M116.1,6h-6.4
	l-4.9,20.7L99.9,6h-8l-5,20.7L82,6h-6.4l7.1,28.9H91l4.9-19.7l4.9,19.7h8.3L116.1,6z M66,17.1c0,2.2-0.7,3.2-3.5,3.2h-5.2v-8.5h5.2
	c2.6,0,3.5,0.9,3.5,3V17.1z M67.5,34.9h7.7l-7-9.9c2.9-1.2,4.2-3.6,4.2-7.2v-3.6c0-5.4-2.6-8.2-9.6-8.2h-12v28.9h6.5v-9h3.8
	L67.5,34.9z"
      />
      <path
        fill="#009e3c"
        d="M0,0v40.2h40.2V0H0z M26.5,17.9L24.4,20l10.8,10.8L31,35L20.1,24.2L9.4,34.9l-4.2-4.2l10.7-10.8l-2.1-2.1v-4.2
	l-1.5-1.5v3.5l-1.5,1.5l-5.3-5.3l-1.4,1.4c0-0.9,0.2-4,2.7-6.5c2.8-2.7,5.6-1.1,6.6-0.2l5.1,5.1l-1.2,1.3l2.8,2.8l2.8-2.8l-1.3-1.3
	l5.1-5.1c1-1,3.8-2.6,6.6,0.2c2.5,2.4,2.8,5.6,2.8,6.5l-1.4-1.4l-5.3,5.3l-1.5-1.5v-3.5l-1.5,1.5L26.5,17.9z"
      />
      <path
        d="M141.3,55.1v-1.7c-0.4-0.1-1.3-0.5-2.4-0.5c-1.5,0-2.9,0.6-2.9,2.2c0,1.3,1.2,1.7,2.2,1.9l1.1,0.2c0.6,0.1,1,0.3,1,0.9
	c0,0.7-0.7,1-1.4,1c-0.7,0-1.2-0.2-1.5-0.3v-0.9h-1.3v1.9c0.4,0.2,1.3,0.4,2.5,0.4c1.5,0,3.1-0.5,3.1-2.3c0-1.4-0.9-1.7-1.7-1.9
	l-1.7-0.3c-0.4-0.1-0.9-0.2-0.9-0.8c0-0.7,0.7-0.8,1.4-0.8c0.6,0,0.9,0.1,1.1,0.2v0.8L141.3,55.1L141.3,55.1z M126.9,60.1h3.2V59
	h-0.9l0.1-2.6c0-1.3,0.8-2.1,1.8-2.1c0.9,0,1.4,0.7,1.4,1.7s0,2-0.1,3h-0.8v1.1h3.2V59h-0.9c0-1.1,0.1-2.2,0.1-3.3
	c0-1.6-0.8-2.7-2.4-2.7c-1.4,0-2.2,0.8-2.4,1.7l0,0c0.1-0.6,0.1-1.1,0.1-1.5h-2.5v1.1h1V59h-0.9V60.1z M117.6,54.3h0.9
	c0,1.1-0.1,2.2-0.1,3.3c0,1.6,0.9,2.6,2.3,2.6c1.1,0,2.1-0.7,2.4-1.7l0,0c-0.1,0.6-0.1,1.1-0.1,1.5h2.4v-1.1h-0.9v-5.8h-2.4v1.1h0.9
	v2.6c0,1.3-0.8,2.1-1.8,2.1c-0.9,0-1.4-0.7-1.4-1.7c0-1.4,0-2.8,0.1-4.1h-2.4v1.2H117.6z M104.4,60.1h3.2V59h-0.9l0.1-2.6
	c0-1.3,0.8-2.1,1.8-2.1c0.9,0,1.4,0.7,1.4,1.7s0,2-0.1,3h-0.8v1.1h3.2V59h-0.9c0-1.1,0.1-2.2,0.1-3.3c0-1.6-0.8-2.7-2.4-2.7
	c-1.4,0-2.2,0.8-2.4,1.7l0,0c0.1-0.6,0.1-1.1,0.1-1.5h-2.5v1.1h1V59h-0.8v1.1H104.4z M98.2,55.8c0.1-0.8,0.5-1.8,1.7-1.8
	c1.3,0,1.6,1.1,1.6,1.6v0.1h-3.3V55.8z M102.7,58.5c-0.6,0.3-1.4,0.5-2.2,0.5c-1.4,0-2.4-0.9-2.4-2.2h4.9v-0.2c0-2.1-1-3.7-3.1-3.7
	c-2.2,0-3.4,1.6-3.4,3.6c0,2.2,1.4,3.6,3.6,3.6c1,0,2-0.3,2.4-0.5L102.7,58.5z M93,56.4c0,1.6-0.6,2.6-1.8,2.6c-1.1,0-1.7-1-1.7-2.3
	c0-1.4,0.8-2.6,2.1-2.6c0.5,0,1,0.1,1.3,0.3L93,56.4L93,56.4z M95.4,59h-0.9l0.1-9.1h-2.7V51h1.3v2.2c-0.4-0.1-0.9-0.2-1.4-0.2
	c-2.4,0-3.7,1.7-3.7,3.9c0,2.1,1.2,3.3,2.9,3.3c1.2,0,1.9-0.6,2.3-1.6l0,0c-0.1,0.4-0.1,0.9-0.1,1.4h2.3v-1H95.4z M79,60.1h3.2V59
	h-0.9l0.1-2.6c0-1.3,0.8-2.1,1.8-2.1c0.9,0,1.4,0.7,1.4,1.7s0,2-0.1,3h-0.8v1.1h3.2V59H86c0-1.1,0.1-2.2,0.1-3.3
	c0-1.6-0.8-2.7-2.4-2.7c-1.4,0-2.2,0.8-2.4,1.7l0,0c0.1-0.6,0.1-1.1,0.1-1.5h-2.5v1.1h1V59h-0.8v1.1H79z M75.1,50.7c0,0.6,0.5,1,1,1
	c0.6,0,1-0.5,1-1c0-0.6-0.5-1-1-1C75.5,49.7,75.1,50.1,75.1,50.7 M74.4,60.1h3.3V59h-0.9v-5.8h-2.5v1.1h1V59h-0.9L74.4,60.1
	L74.4,60.1z M65.6,50.9h1.1l-0.1,8.8c0.7,0.3,1.4,0.5,2.7,0.5c3,0,3.9-2,3.9-4.1c0-1.8-1-3.1-2.8-3.1c-1.4,0-2.1,0.9-2.4,1.6l0,0
	c0.1-0.5,0.1-1,0.1-1.5l0.1-3.3h-2.6L65.6,50.9L65.6,50.9z M71.6,56.2c0,1.4-0.6,2.7-2.2,2.7c-0.7,0-1.1-0.2-1.4-0.3l0.1-2.5
	c0-1.1,0.6-2,1.8-2C71.1,54.3,71.6,55,71.6,56.2 M60.2,60.1h3.3V59h-1v-2.2c0-1.2,0.6-2.5,1.9-2.5c0.3,0,0.5,0,0.7,0.1l0.2-1.3
	C65.2,53,64.8,53,64.5,53c-1,0-1.8,0.8-2,2.1l0,0c0.1-0.7,0.1-1.4,0.1-1.9h-2.5v1.1h1V59h-0.8L60.2,60.1L60.2,60.1z M54,55.8
	c0.1-0.8,0.5-1.8,1.7-1.8s1.6,1.1,1.6,1.6v0.1H54V55.8z M58.6,58.5C58,58.8,57.2,59,56.4,59C55,59,54,58.1,54,56.8h4.9v-0.2
	c0-2.1-1-3.7-3.1-3.7c-2.2,0-3.4,1.6-3.4,3.6c0,2.2,1.4,3.6,3.6,3.6c1,0,2-0.3,2.4-0.5L58.6,58.5z M47.3,60.1h1.6l2.4-5.8H52v-1.1
	h-3.1v1.1h0.9L48.5,58c-0.1,0.3-0.1,0.6-0.2,0.8l0,0c-0.1-0.3-0.1-0.6-0.2-0.8l-1.4-3.7h0.7v-1.1h-3.1v1.1H45L47.3,60.1z M34.9,55.8
	C35,55,35.4,54,36.6,54c1.3,0,1.6,1.1,1.6,1.6v0.1h-3.3V55.8z M39.5,58.5c-0.6,0.3-1.4,0.5-2.2,0.5c-1.4,0-2.4-0.9-2.4-2.2h4.9v-0.2
	c0-2.1-1-3.7-3.1-3.7c-2.2,0-3.4,1.6-3.4,3.6c0,2.2,1.4,3.6,3.6,3.6c1,0,2-0.3,2.4-0.5L39.5,58.5z M28,54.3h1c0,1.2,0,3,0,3.9
	c0,1.6,0.6,2.1,2,2.1c0.6,0,1.2-0.2,1.5-0.3l0.1-1.1c-0.3,0.1-0.8,0.3-1.2,0.3c-0.7,0-1-0.3-1-1.6c0-1,0-2.1,0-3.2h2v-1.1h-2
	l0.1-1.7L29,51.7v1.6h-1V54.3z M22.3,60.1h3.3V59h-1v-2.2c0-1.2,0.6-2.5,1.9-2.5c0.3,0,0.5,0,0.7,0.1l0.2-1.3
	C27.3,53,26.9,53,26.6,53c-1,0-1.8,0.8-2,2.1l0,0c0.1-0.7,0.1-1.4,0.1-1.9h-2.5v1.1h1V59h-0.8L22.3,60.1L22.3,60.1z M16.1,55.8
	c0.1-0.8,0.5-1.8,1.7-1.8c1.3,0,1.6,1.1,1.6,1.6v0.1h-3.3V55.8z M20.7,58.5c-0.6,0.3-1.4,0.5-2.2,0.5c-1.4,0-2.4-0.9-2.4-2.2H21
	v-0.2c0-2.1-1-3.7-3.1-3.7c-2.2,0-3.4,1.6-3.4,3.6c0,2.2,1.4,3.6,3.6,3.6c1,0,2-0.3,2.4-0.5L20.7,58.5z M0.1,51.9h0.8l3,8.2h1.6
	l1.9-4.9l0,0L9,60.1h1.6l3.3-8.2h0.8v-1.1h-3.3v1.1h1l-2,5.9c-0.1,0.4-0.2,0.7-0.3,1.1l0,0c-0.1-0.4-0.1-0.7-0.3-1.1l-1.9-5.9h1
	v-1.1H5.5v1.1h0.9l0.5,1.5l-1.6,4.5c-0.1,0.3-0.2,0.7-0.3,1l0,0c-0.1-0.3-0.2-0.7-0.3-1l-2-6h0.9v-1.1H0.1
	C0.1,50.8,0.1,51.9,0.1,51.9z"
      />
    </svg>